# xmcd
#
# Track frame offsets: 
#        150
#        11141
#        21106
#        36858
#        51350
#        66849
#        80444
#        93818
#        106921
#        120281
#        135527
#        149414
#
# Disc length: 2077 seconds
#
# Revision: 0
# Processed by: cddbd v1.5.2PL0 Copyright (c) Steve Scherf et al.
# Submitted via: ExactAudioCopy v0.99pb3
#
DISCID=99081b0c
DTITLE=Tif Ginn - Tif Ginn
DYEAR=2012
DGENRE=Rock
TTITLE0=Pretty As You Please
TTITLE1=Here We Go Again
TTITLE2=B Side
TTITLE3=Tejas Mission
TTITLE4=Better Half
TTITLE5=Little White Pills
TTITLE6=Middle Man
TTITLE7=Over You
TTITLE8=Drag
TTITLE9=Wings
TTITLE10=Reflections
TTITLE11=Scream
EXTD=
EXTT0=
EXTT1=
EXTT2=
EXTT3=
EXTT4=
EXTT5=
EXTT6=
EXTT7=
EXTT8=
EXTT9=
EXTT10=
EXTT11=
PLAYORDER=
